<mxfile host="app.diagrams.net" agent="Mozilla/5.0 (Windows NT 10.0; Win64; x64) AppleWebKit/537.36 (KHTML, like Gecko) Chrome/139.0.0.0 Safari/537.36" version="28.0.7">
  <diagram name="Página-1" id="RKQcOs8i7ruq7OD-eDvf">
    <mxGraphModel dx="805" dy="1599" grid="1" gridSize="10" guides="1" tooltips="1" connect="1" arrows="1" fold="1" page="1" pageScale="1" pageWidth="827" pageHeight="1169" math="0" shadow="0">
      <root>
        <mxCell id="0" />
        <mxCell id="1" parent="0" />
        <mxCell id="mC47HwToALD3jSsvjgy5-25" style="edgeStyle=orthogonalEdgeStyle;rounded=0;orthogonalLoop=1;jettySize=auto;html=1;exitX=0.5;exitY=1;exitDx=0;exitDy=0;entryX=0.5;entryY=0;entryDx=0;entryDy=0;" edge="1" parent="1" source="mC47HwToALD3jSsvjgy5-1" target="mC47HwToALD3jSsvjgy5-2">
          <mxGeometry relative="1" as="geometry" />
        </mxCell>
        <mxCell id="mC47HwToALD3jSsvjgy5-1" value="Inicio" style="shape=parallelogram;perimeter=parallelogramPerimeter;whiteSpace=wrap;html=1;fixedSize=1;" vertex="1" parent="1">
          <mxGeometry x="300" y="-1160" width="120" height="60" as="geometry" />
        </mxCell>
        <mxCell id="mC47HwToALD3jSsvjgy5-26" style="edgeStyle=orthogonalEdgeStyle;rounded=0;orthogonalLoop=1;jettySize=auto;html=1;exitX=0.5;exitY=1;exitDx=0;exitDy=0;entryX=0.5;entryY=0;entryDx=0;entryDy=0;" edge="1" parent="1" source="mC47HwToALD3jSsvjgy5-2" target="mC47HwToALD3jSsvjgy5-16">
          <mxGeometry relative="1" as="geometry" />
        </mxCell>
        <mxCell id="mC47HwToALD3jSsvjgy5-2" value="&lt;p class=&quot;MsoNormal&quot;&gt;Recibir la lista de productos en la orden, incluyendo&lt;br/&gt;cantidad y precio unitario de cada uno&lt;/p&gt;" style="whiteSpace=wrap;html=1;aspect=fixed;" vertex="1" parent="1">
          <mxGeometry x="305" y="-1040" width="110" height="110" as="geometry" />
        </mxCell>
        <mxCell id="mC47HwToALD3jSsvjgy5-27" style="edgeStyle=orthogonalEdgeStyle;rounded=0;orthogonalLoop=1;jettySize=auto;html=1;exitX=0.5;exitY=1;exitDx=0;exitDy=0;" edge="1" parent="1" source="mC47HwToALD3jSsvjgy5-16" target="mC47HwToALD3jSsvjgy5-17">
          <mxGeometry relative="1" as="geometry" />
        </mxCell>
        <mxCell id="mC47HwToALD3jSsvjgy5-16" value="&lt;p class=&quot;MsoNormal&quot;&gt;Recorrer cada producto en la lista&lt;/p&gt;" style="whiteSpace=wrap;html=1;aspect=fixed;" vertex="1" parent="1">
          <mxGeometry x="305" y="-870" width="110" height="110" as="geometry" />
        </mxCell>
        <mxCell id="mC47HwToALD3jSsvjgy5-17" value="&lt;p class=&quot;MsoNormal&quot;&gt;Multiplicar la cantidad por el precio unitario para obtener&lt;br/&gt;el subtotal de cada producto&lt;/p&gt;" style="whiteSpace=wrap;html=1;aspect=fixed;" vertex="1" parent="1">
          <mxGeometry x="297.5" y="-690" width="125" height="125" as="geometry" />
        </mxCell>
        <mxCell id="mC47HwToALD3jSsvjgy5-33" style="edgeStyle=orthogonalEdgeStyle;rounded=0;orthogonalLoop=1;jettySize=auto;html=1;entryX=0.5;entryY=0;entryDx=0;entryDy=0;" edge="1" parent="1" source="mC47HwToALD3jSsvjgy5-18" target="mC47HwToALD3jSsvjgy5-19">
          <mxGeometry relative="1" as="geometry" />
        </mxCell>
        <mxCell id="mC47HwToALD3jSsvjgy5-18" value="&lt;p class=&quot;MsoNormal&quot;&gt;Calcular el monto del descuento según el tipo y porcentaje&lt;br/&gt;aplicable&lt;/p&gt;" style="whiteSpace=wrap;html=1;aspect=fixed;" vertex="1" parent="1">
          <mxGeometry x="302.5" y="-330" width="110" height="110" as="geometry" />
        </mxCell>
        <mxCell id="mC47HwToALD3jSsvjgy5-41" style="edgeStyle=orthogonalEdgeStyle;rounded=0;orthogonalLoop=1;jettySize=auto;html=1;exitX=0.5;exitY=1;exitDx=0;exitDy=0;entryX=0.5;entryY=0;entryDx=0;entryDy=0;" edge="1" parent="1" source="mC47HwToALD3jSsvjgy5-19" target="mC47HwToALD3jSsvjgy5-22">
          <mxGeometry relative="1" as="geometry" />
        </mxCell>
        <mxCell id="mC47HwToALD3jSsvjgy5-19" value="&lt;p class=&quot;MsoNormal&quot;&gt;&lt;span style=&quot;font-size:12.0pt;line-height:115%;&lt;br/&gt;font-family:&amp;quot;Calibri&amp;quot;,sans-serif;mso-ascii-theme-font:minor-latin;mso-fareast-font-family:&lt;br/&gt;Calibri;mso-fareast-theme-font:minor-latin;mso-hansi-theme-font:minor-latin;&lt;br/&gt;mso-bidi-font-family:&amp;quot;Times New Roman&amp;quot;;mso-bidi-theme-font:minor-bidi;&lt;br/&gt;mso-ansi-language:ES-CR;mso-fareast-language:EN-US;mso-bidi-language:AR-SA&quot;&gt;Restar&lt;br/&gt;el descuento del total bruto para obtener el total neto&lt;/span&gt;&lt;/p&gt;" style="whiteSpace=wrap;html=1;aspect=fixed;" vertex="1" parent="1">
          <mxGeometry x="302.5" y="-150" width="110" height="110" as="geometry" />
        </mxCell>
        <mxCell id="mC47HwToALD3jSsvjgy5-32" style="edgeStyle=orthogonalEdgeStyle;rounded=0;orthogonalLoop=1;jettySize=auto;html=1;exitX=0.5;exitY=1;exitDx=0;exitDy=0;entryX=0.5;entryY=0;entryDx=0;entryDy=0;" edge="1" parent="1" source="mC47HwToALD3jSsvjgy5-21" target="mC47HwToALD3jSsvjgy5-18">
          <mxGeometry relative="1" as="geometry" />
        </mxCell>
        <mxCell id="mC47HwToALD3jSsvjgy5-52" style="edgeStyle=orthogonalEdgeStyle;rounded=0;orthogonalLoop=1;jettySize=auto;html=1;entryX=1;entryY=0.5;entryDx=0;entryDy=0;" edge="1" parent="1" source="mC47HwToALD3jSsvjgy5-21" target="mC47HwToALD3jSsvjgy5-22">
          <mxGeometry relative="1" as="geometry">
            <mxPoint x="420" y="90" as="targetPoint" />
            <Array as="points">
              <mxPoint x="540" y="-445" />
              <mxPoint x="540" y="95" />
            </Array>
          </mxGeometry>
        </mxCell>
        <mxCell id="mC47HwToALD3jSsvjgy5-21" value="&lt;p class=&quot;MsoNormal&quot;&gt;Verificar si aplica algún descuento&lt;/p&gt;" style="rhombus;whiteSpace=wrap;html=1;" vertex="1" parent="1">
          <mxGeometry x="296.25" y="-510" width="122.5" height="130" as="geometry" />
        </mxCell>
        <mxCell id="mC47HwToALD3jSsvjgy5-38" style="edgeStyle=orthogonalEdgeStyle;rounded=0;orthogonalLoop=1;jettySize=auto;html=1;" edge="1" parent="1" source="mC47HwToALD3jSsvjgy5-22" target="mC47HwToALD3jSsvjgy5-23">
          <mxGeometry relative="1" as="geometry" />
        </mxCell>
        <mxCell id="mC47HwToALD3jSsvjgy5-22" value="&lt;p class=&quot;MsoNormal&quot;&gt;Agregar impuestos si corresponde (IVA).&lt;/p&gt;" style="whiteSpace=wrap;html=1;aspect=fixed;" vertex="1" parent="1">
          <mxGeometry x="302.5" y="40" width="110" height="110" as="geometry" />
        </mxCell>
        <mxCell id="mC47HwToALD3jSsvjgy5-39" style="edgeStyle=orthogonalEdgeStyle;rounded=0;orthogonalLoop=1;jettySize=auto;html=1;exitX=0.5;exitY=1;exitDx=0;exitDy=0;entryX=0.5;entryY=0;entryDx=0;entryDy=0;" edge="1" parent="1" source="mC47HwToALD3jSsvjgy5-23" target="mC47HwToALD3jSsvjgy5-24">
          <mxGeometry relative="1" as="geometry" />
        </mxCell>
        <mxCell id="mC47HwToALD3jSsvjgy5-23" value="&lt;p class=&quot;MsoNormal&quot;&gt;Mostrar el costo total final al cliente.&lt;/p&gt;" style="whiteSpace=wrap;html=1;aspect=fixed;" vertex="1" parent="1">
          <mxGeometry x="302.5" y="250" width="110" height="110" as="geometry" />
        </mxCell>
        <mxCell id="mC47HwToALD3jSsvjgy5-24" value="FIN" style="ellipse;whiteSpace=wrap;html=1;aspect=fixed;" vertex="1" parent="1">
          <mxGeometry x="307.5" y="440" width="100" height="100" as="geometry" />
        </mxCell>
        <mxCell id="mC47HwToALD3jSsvjgy5-31" style="edgeStyle=orthogonalEdgeStyle;rounded=0;orthogonalLoop=1;jettySize=auto;html=1;entryX=0.521;entryY=0.077;entryDx=0;entryDy=0;entryPerimeter=0;" edge="1" parent="1" source="mC47HwToALD3jSsvjgy5-17" target="mC47HwToALD3jSsvjgy5-21">
          <mxGeometry relative="1" as="geometry" />
        </mxCell>
        <mxCell id="mC47HwToALD3jSsvjgy5-54" value="SI" style="text;html=1;align=center;verticalAlign=middle;resizable=0;points=[];autosize=1;strokeColor=none;fillColor=none;" vertex="1" parent="1">
          <mxGeometry x="305" y="-382" width="30" height="30" as="geometry" />
        </mxCell>
        <mxCell id="mC47HwToALD3jSsvjgy5-55" value="NO" style="text;html=1;align=center;verticalAlign=middle;resizable=0;points=[];autosize=1;strokeColor=none;fillColor=none;" vertex="1" parent="1">
          <mxGeometry x="430" y="-492" width="40" height="30" as="geometry" />
        </mxCell>
      </root>
    </mxGraphModel>
  </diagram>
</mxfile>
